<?xml version="1.0" standalone="no"?>
<!DOCTYPE svg PUBLIC "-//W3C//DTD SVG 20010904//EN"
 "http://www.w3.org/TR/2001/REC-SVG-20010904/DTD/svg10.dtd">
<svg version="1.0" xmlns="http://www.w3.org/2000/svg"
 width="512.000000pt" height="512.000000pt" viewBox="0 0 512.000000 512.000000"
 preserveAspectRatio="xMidYMid meet">
<metadata>
Created by potrace 1.14, written by Peter Selinger 2001-2017
</metadata>
<g transform="translate(0.000000,512.000000) scale(0.100000,-0.100000)"
fill="#000000" stroke="none">
<path d="M3760 5041 c0 -3 -20 -7 -45 -7 -45 -1 -196 -33 -205 -43 -3 -3 -13
-7 -24 -9 -10 -2 -30 -8 -45 -14 -14 -6 -29 -11 -33 -10 -5 1 -8 -2 -8 -8 0
-5 -9 -10 -20 -10 -11 0 -20 -5 -20 -11 0 -5 -4 -8 -9 -4 -5 3 -15 0 -23 -7
-7 -7 -31 -22 -52 -33 -22 -11 -47 -27 -56 -35 -9 -8 -30 -24 -45 -35 -62 -43
-109 -89 -639 -617 -303 -302 -554 -548 -560 -548 -5 0 -7 -2 -5 -5 7 -6
-1370 -1385 -1382 -1385 -5 0 -8 -3 -7 -7 1 -5 -45 -56 -102 -114 -120 -121
-182 -189 -172 -189 4 0 0 -6 -8 -13 -32 -25 -155 -249 -143 -261 4 -3 0 -6
-7 -6 -7 0 -11 -3 -8 -6 4 -3 0 -20 -7 -39 -8 -18 -11 -35 -8 -39 4 -3 0 -6
-7 -6 -7 0 -11 -2 -8 -6 3 -3 -2 -36 -12 -74 -10 -38 -17 -88 -17 -113 0 -24
-2 -48 -5 -53 -15 -24 2 -263 24 -349 6 -22 12 -51 15 -65 2 -14 8 -27 14 -28
5 -2 6 -8 3 -13 -3 -6 0 -16 6 -24 7 -8 10 -15 6 -15 -4 0 0 -13 8 -29 9 -16
12 -31 9 -35 -4 -3 -1 -6 6 -6 7 0 9 -5 6 -10 -3 -6 -2 -10 3 -10 9 0 25 -37
23 -52 -1 -5 4 -8 10 -8 5 0 7 -5 4 -10 -3 -6 -1 -10 4 -10 6 0 11 -7 11 -15
0 -9 7 -18 15 -21 8 -4 13 -9 10 -13 -2 -4 9 -23 25 -42 16 -19 29 -39 30 -44
0 -6 9 -16 20 -23 11 -7 20 -16 20 -22 0 -18 200 -200 220 -200 6 0 10 -4 10
-9 0 -5 20 -20 45 -32 25 -12 45 -27 45 -32 0 -6 3 -7 7 -4 3 4 14 0 24 -9 9
-8 23 -17 31 -18 7 -2 27 -9 43 -16 17 -7 33 -14 38 -15 4 -2 9 -4 12 -5 3 -1
8 -3 13 -4 4 -1 12 -4 17 -7 9 -5 46 -17 80 -24 6 -2 28 -7 50 -13 22 -6 63
-14 90 -18 63 -9 287 -13 299 -6 6 3 24 7 40 8 34 2 119 18 136 24 3 1 8 2 13
1 4 0 7 3 7 7 0 4 8 8 18 9 26 1 53 10 97 29 22 10 42 18 45 19 21 7 48 20 63
33 9 8 17 12 17 8 0 -4 10 2 22 13 11 11 25 18 30 15 4 -3 8 0 8 7 0 7 3 10 6
6 3 -3 19 6 34 20 16 14 32 24 36 23 4 -1 11 5 16 14 5 9 14 16 20 16 6 0 192
181 413 401 221 221 409 405 416 410 8 5 12 9 9 9 -3 0 172 179 390 397 217
219 398 397 403 395 4 -2 7 1 7 5 0 9 406 418 431 434 7 5 11 9 8 9 -7 0 372
378 392 391 8 5 12 9 9 9 -3 0 62 69 145 153 175 178 205 211 205 226 0 6 3
11 8 11 9 0 73 102 72 113 -1 5 5 14 12 20 16 14 70 131 85 185 1 6 5 18 6 25
2 6 7 19 10 27 4 8 8 27 11 42 3 15 7 31 10 36 17 28 26 307 13 413 -4 32 -19
95 -33 140 -14 46 -27 93 -29 104 -2 11 -13 39 -24 62 -12 23 -21 47 -21 53 0
5 -4 10 -8 10 -5 0 -14 16 -22 35 -8 19 -16 35 -19 35 -4 0 -12 12 -18 28 -7
15 -23 39 -35 54 -13 14 -37 43 -55 65 -47 57 -94 104 -142 143 -24 19 -49 40
-56 47 -7 7 -15 9 -19 6 -3 -4 -6 -1 -6 5 0 6 -21 24 -47 39 -27 15 -49 31
-51 35 -2 4 -12 8 -23 8 -10 0 -19 5 -19 10 0 6 -6 10 -12 10 -7 0 -25 7 -41
15 -43 22 -178 65 -187 60 -5 -3 -11 -1 -14 4 -8 12 -130 33 -150 25 -9 -3
-16 -2 -16 3 0 5 -52 9 -115 10 -63 0 -115 -2 -115 -6z"/>
</g>
</svg>
